Coordinates
version=1
nRows=16
nColumns=36
inDegrees=yes

Units are S.I. units (second, meters, Newtons, ...)
If the header above contains a line with 'inDegrees', this indicates whether rotational values are in degrees (yes) or radians (no).

endheader
time	pelvis_tilt	pelvis_list	pelvis_rotation	pelvis_tx	pelvis_ty	pelvis_tz	hip_flexion_r	hip_adduction_r	hip_rotation_r	knee_angle_r	knee_angle_r_beta	ankle_angle_r	subtalar_angle_r	mtp_angle_r	hip_flexion_l	hip_adduction_l	hip_rotation_l	knee_angle_l	knee_angle_l_beta	ankle_angle_l	subtalar_angle_l	mtp_angle_l	lumbar_extension	lumbar_bending	lumbar_rotation	arm_flex_r	arm_add_r	arm_rot_r	elbow_flex_r	pro_sup_r	arm_flex_l	arm_add_l	arm_rot_l	elbow_flex_l	pro_sup_l
      0.00000000	     -3.45789923	      2.15329987	      6.43037241	     -0.14405740	      0.99323401	     -0.30530461	     28.16610639	     -3.42765068	     -3.97115432	      6.00472848	      0.10480228	     -5.51026993	    -10.46188058	     -5.17246389	    -16.40122125	      1.68398559	     -2.25936489	     11.09802684	      0.19369711	     12.84479129	      9.07694221	     -5.17246389	    -13.74654979	     -6.53304997	     -9.35411805	     -6.82624543	     -8.31311116	     -3.89766236	     39.47953747	    109.27242528	      8.97140168	    -12.84715321	      4.73093310	     47.17381911	    108.71299525
      0.01000000	     -3.02022815	      1.64219854	      6.56239816	     -0.13093768	      0.99360316	     -0.30521666	     27.99928486	     -2.99821769	     -4.74618341	      7.73036081	      0.13492025	     -6.27410705	    -10.80864740	     -5.19257599	    -16.70685189	      0.86774284	     -2.49168423	     12.58715167	      0.21968724	     12.07154362	      8.65819508	     -5.19257599	    -13.95701801	     -5.15971833	     -9.12213477	     -6.53211173	     -8.45608818	     -4.26572675	     38.97101883	    109.20592014	      8.15100946	    -12.45869515	      4.96885944	     46.54329141	    108.67499292
      0.02000000	     -2.67660748	      1.11577954	      6.70937818	     -0.11785007	      0.99396333	     -0.30510436	     27.89841508	     -2.56410845	     -5.39638839	      9.40230280	      0.16410114	     -7.03794716	    -11.23895469	     -5.21517604	    -16.81490754	      0.02141769	     -2.72979965	     14.21442496	      0.24808852	     11.22351119	      8.29202835	     -5.21517604	    -14.04015462	     -3.79559669	     -8.86445139	     -6.27424225	     -8.52603007	     -4.75991151	     38.46679830	    109.12652921	      7.33911561	    -12.02175795	      5.32772566	     45.78765348	    108.63448537
      0.03000000	     -2.31438799	      0.52309113	      6.83630333	     -0.10479732	      0.99456035	     -0.30494825	     27.79589717	     -2.04762828	     -6.00796441	     11.16734250	      0.19490690	     -7.55076763	    -11.74807860	     -5.23635421	    -16.80477574	     -0.90274506	     -3.03267274	     16.02655808	      0.27971621	     10.17649862	      7.89158729	     -5.23635421	    -14.16830484	     -2.36533073	     -8.57183938	     -6.03268257	     -8.60999165	     -5.33352141	     38.02324164	    109.04466705	      6.54200444	    -11.59007708	      5.73655273	     45.01961480	    108.59872605
      0.04000000	     -2.03889726	     -0.12247771	      6.95230367	     -0.09172865	      0.99531696	     -0.30468540	     27.71626754	     -1.46045061	     -6.52862119	     12.85069736	      0.22428698	     -7.78773204	    -12.28991495	     -5.26560970	    -16.48950386	     -1.90547092	     -3.43819965	     18.14325763	      0.31665958	      8.88084460	      7.40216048	     -5.26560970	    -14.16229341	     -0.91118013	     -8.21194639	     -5.86496478	     -8.63910348	     -6.16095323	     37.66285206	    108.95301490	      5.76174235	    -11.15755236	      6.27543154	     44.13832238	    108.56742360
      0.05000000	     -1.80745569	     -0.79926607	      7.03522193	     -0.07870648	      0.99629372	     -0.30430577	     27.60657964	     -0.81188158	     -6.98034914	     14.44488142	      0.25211074	     -7.69880144	    -12.70504082	     -5.31432572	    -15.92740477	     -2.95479039	     -3.87863287	     20.53700919	      0.35843843	      7.32964332	      6.75480034	     -5.31432572	    -14.11787854	      0.54259781	     -7.71040317	     -5.82018537	     -8.64092528	     -7.42020183	     37.49688390	    108.86788276	      5.05820389	    -10.76791858	      7.02198663	     43.13373618	    108.55420936
      0.06000000	     -1.48062737	     -1.43778460	      7.10070375	     -0.06573658	      0.99767322	     -0.30387461	     27.27045368	     -0.18847067	     -7.62161145	     15.85559427	      0.27673232	     -7.19073003	    -12.90331717	     -5.39265716	    -15.28027399	     -3.99395902	     -4.33146191	     23.17867242	      0.40454415	      5.46715017	      5.87817093	     -5.39265716	    -14.20649665	      1.93868794	     -7.13231265	     -5.85890755	     -8.53095678	     -8.93283780	     37.55615978	    108.86025954	      4.41238496	    -10.37059267	      7.91960077	     42.10861418	    108.57830360
      0.07000000	     -1.12161924	     -2.15637772	      7.19430288	     -0.05277032	      0.99930794	     -0.30320427	     26.66452792	      0.58566447	     -8.22991131	     16.82410738	      0.29363607	     -6.58297608	    -13.18190132	     -5.41461785	    -14.44722760	     -5.22117577	     -4.90070649	     26.10683362	      0.45565020	      3.38512921	      5.13748498	     -5.41461785	    -14.33475061	      3.34579008	     -6.87906308	     -5.62666765	     -8.56504421	     -9.50866343	     37.42995679	    108.83807663	      3.43787359	    -10.03335808	      8.23027395	     41.49096517	    108.58129846
      0.08000000	     -0.91912057	     -2.86205853	      7.30912820	     -0.03989677	      1.00081832	     -0.30244503	     26.04293776	      1.36354204	     -8.75480510	     17.46038462	      0.30474120	     -5.91253668	    -13.28915952	     -5.43691857	    -13.20902550	     -6.46991029	     -5.40532242	     29.38275949	      0.51282590	      1.17397880	      4.18441372	     -5.43691857	    -14.26229526	      4.71600797	     -6.64253193	     -5.49448549	     -8.55392458	    -10.29723246	     37.37205984	    108.80067311	      2.43949546	     -9.70494678	      8.55827017	     40.79329257	    108.60675340
      0.09000000	     -0.87700632	     -3.43427548	      7.47429178	     -0.02748092	      1.00220570	     -0.30156958	     25.50380495	      1.99575687	     -9.23977893	     17.92230850	      0.31280329	     -5.03274671	    -13.07490447	     -5.53972228	    -11.58031785	     -7.52914184	     -5.50234605	     32.90352942	      0.57427492	     -1.44821085	      2.41090690	     -5.53972228	    -14.05713641	      5.88207141	     -6.13993558	     -5.68125368	     -8.24395758	    -12.32288117	     37.81350999	    108.90325574	      1.85011329	     -9.45882505	      9.60061991	     39.63674066	    108.86881229
      0.10000000	     -0.77768842	     -4.17009694	      7.74716468	     -0.01520360	      1.00360795	     -0.30044563	     24.72581952	      2.86949788	     -9.71116715	     17.96407153	      0.31353220	     -4.34811113	    -13.26296794	     -5.56234332	     -9.77091904	     -8.97049991	     -5.76766472	     36.70279533	      0.64058462	     -3.76364635	      1.54226603	     -5.56234332	    -13.89478876	      7.15214504	     -6.11931564	     -5.48903046	     -8.18038394	    -12.80068239	     37.84250616	    108.91127761	      0.86426932	     -9.26156690	      9.88313815	     39.07115118	    108.91102745
      0.11000000	     -0.81306748	     -4.85215298	      8.10335910	     -0.00335955	      1.00480187	     -0.29930400	     24.04629653	      3.68237711	    -10.11550549	     17.86482588	      0.31180003	     -3.70357404	    -13.47281755	     -5.58399300	     -7.62508823	    -10.31550484	     -5.68664732	     40.62394435	      0.70902158	     -6.24446818	      0.34559012	     -5.58399300	    -13.58136860	      8.31489642	     -6.17169074	     -5.33054293	     -8.06845091	    -13.39716426	     37.95860760	    108.90552472	     -0.03575441	     -9.14811440	     10.17293427	     38.46429109	    108.96757478
      0.12000000	     -0.86970165	     -5.50759482	      8.58125664	      0.00810773	      1.00594012	     -0.29828386	     23.36150368	      4.45950380	    -10.47348810	     17.66932765	      0.30838794	     -3.03157619	    -13.76182166	     -5.60265891	     -5.28197550	    -11.61243703	     -5.32029490	     44.56477975	      0.77780214	     -8.87332213	     -0.93931506	     -5.60265891	    -13.27013609	      9.41726546	     -6.31575983	     -5.17877440	     -7.95831863	    -13.95868040	     38.11163386	    108.89645381	     -0.86061595	     -9.04465694	     10.49717330	     37.89124682	    109.03385216
      0.13000000	     -1.17101714	     -5.89183872	      9.02115554	      0.01905175	      1.00687493	     -0.29742170	     22.99982272	      4.89117846	    -10.77990903	     17.58248541	      0.30687226	     -2.75408440	    -14.11204835	     -5.66055692	     -2.63115321	    -12.33370018	     -4.60141304	     48.31666072	      0.84328481	    -12.20855302	     -3.81651867	     -5.66055692	    -12.72917521	     10.15784731	     -6.35888831	     -5.14222956	     -7.70249737	    -14.94216940	     38.42849975	    108.95582199	     -1.40679806	     -9.04205433	     11.19045745	     37.01174551	    109.25371012
      0.14000000	     -1.15875687	     -6.46024248	      9.54021323	      0.03000976	      1.00821643	     -0.29656757	     22.18572030	      5.61519201	    -11.01603954	     17.20280445	      0.30024558	     -2.14222877	    -14.30858193	     -5.68573167	     -0.27480724	    -13.39434107	     -3.97728635	     51.88588748	      0.90557957	    -14.56738851	     -4.91984538	     -5.68573167	    -12.51500709	     11.11141910	     -6.59320953	     -4.91920020	     -7.59520802	    -15.24681470	     38.65770316	    108.99021255	     -2.09925213	     -9.04878860	     11.60240188	     36.53670896	    109.34658117
      0.15000000	     -1.19450928	     -6.88450419	     10.04732557	      0.04067893	      1.00958438	     -0.29589605	     21.43280732	      6.16720700	    -11.31517092	     16.82582681	      0.29366608	     -1.58479578	    -14.53435440	     -5.70799788	      2.12741792	    -14.13768798	     -3.23103936	     55.20397464	      0.96349112	    -16.72367121	     -6.35562880	     -5.70799788	    -12.28700133	     11.84613361	     -6.80565380	     -4.70620992	     -7.52857057	    -15.48737290	     38.88624120	    109.01907735	     -2.69945323	     -9.11091578	     11.99358637	     36.06797138	    109.43055827
